<svg width="272" height="84" viewBox="0 0 272 84" fill="none" xmlns="http://www.w3.org/2000/svg">
<rect y="11" width="59" height="70.8" rx="5" fill="white"/>
<path d="M51.9199 44.8267H6.29321" stroke="#D2D2D2" stroke-linecap="round"/>
<path d="M6.29321 42.4667L6.29321 77.0801" stroke="#D2D2D2" stroke-linecap="round"/>
<path d="M21.24 42.4667L21.24 77.0801" stroke="#D2D2D2" stroke-linecap="round"/>
<path d="M36.1868 41.6801L36.1868 76.2935" stroke="#D2D2D2" stroke-linecap="round"/>
<path d="M51.1333 42.4667L51.1333 77.0801" stroke="#D2D2D2" stroke-linecap="round"/>
<path d="M51.9199 63.7068H6.29321" stroke="#D2D2D2" stroke-linecap="round"/>
<path d="M13.0801 16.22H45.9201C48.9576 16.22 51.4201 18.6824 51.4201 21.72V44.3266H7.58008V21.72C7.58008 18.6824 10.0425 16.22 13.0801 16.22Z" fill="white" stroke="#E9E9E9"/>
<path d="M51.9199 54.2666H6.29321" stroke="#D2D2D2" stroke-linecap="round"/>
<path d="M51.9199 73.1467H6.29321" stroke="#D2D2D2" stroke-linecap="round"/>
<path d="M16.1268 18.8667C24.1644 18.8667 30.6802 25.3824 30.6802 33.42V33.42C30.6802 41.4576 24.1644 47.9734 16.1268 47.9734L6.29351 47.9734L6.29351 18.8667L16.1268 18.8667Z" fill="#253982"/>
<path d="M18.0933 40.8933C27.217 40.8933 34.6133 48.2896 34.6133 57.4133V57.4133C34.6133 66.5371 27.217 73.9333 18.0933 73.9333L6.29328 73.9333L6.29328 40.8933L18.0933 40.8933Z" fill="#253982"/>
<path d="M67.2273 62V27.0909H75.2045V32.9091H75.5682C76.2045 30.8939 77.2955 29.3409 78.8409 28.25C80.4015 27.1439 82.1818 26.5909 84.1818 26.5909C84.6364 26.5909 85.1439 26.6136 85.7045 26.6591C86.2803 26.6894 86.7576 26.7424 87.1364 26.8182V34.3864C86.7879 34.2652 86.2348 34.1591 85.4773 34.0682C84.7348 33.9621 84.0152 33.9091 83.3182 33.9091C81.8182 33.9091 80.4697 34.2348 79.2727 34.8864C78.0909 35.5227 77.1591 36.4091 76.4773 37.5455C75.7955 38.6818 75.4545 39.9924 75.4545 41.4773V62H67.2273ZM92.6023 62V27.0909H100.83V62H92.6023ZM96.7386 22.1364C95.4356 22.1364 94.3144 21.7045 93.375 20.8409C92.4356 19.9621 91.9659 18.9091 91.9659 17.6818C91.9659 16.4394 92.4356 15.3864 93.375 14.5227C94.3144 13.6439 95.4356 13.2045 96.7386 13.2045C98.0568 13.2045 99.178 13.6439 100.102 14.5227C101.042 15.3864 101.511 16.4394 101.511 17.6818C101.511 18.9091 101.042 19.9621 100.102 20.8409C99.178 21.7045 98.0568 22.1364 96.7386 22.1364ZM124.517 62.6818C121.032 62.6818 118.04 61.9167 115.54 60.3864C113.055 58.8561 111.138 56.7424 109.79 54.0455C108.456 51.3333 107.79 48.2121 107.79 44.6818C107.79 41.1364 108.472 38.0076 109.835 35.2955C111.199 32.5682 113.123 30.447 115.608 28.9318C118.108 27.4015 121.063 26.6364 124.472 26.6364C127.305 26.6364 129.813 27.1591 131.994 28.2045C134.191 29.2348 135.941 30.697 137.244 32.5909C138.547 34.4697 139.29 36.6667 139.472 39.1818H131.608C131.29 37.5 130.532 36.0985 129.335 34.9773C128.153 33.8409 126.57 33.2727 124.585 33.2727C122.903 33.2727 121.426 33.7273 120.153 34.6364C118.881 35.5303 117.888 36.8182 117.176 38.5C116.479 40.1818 116.131 42.197 116.131 44.5455C116.131 46.9242 116.479 48.9697 117.176 50.6818C117.873 52.3788 118.85 53.6894 120.108 54.6136C121.381 55.5227 122.873 55.9773 124.585 55.9773C125.797 55.9773 126.881 55.75 127.835 55.2955C128.805 54.8258 129.616 54.1515 130.267 53.2727C130.919 52.3939 131.366 51.3258 131.608 50.0682H139.472C139.275 52.5379 138.547 54.7273 137.29 56.6364C136.032 58.5303 134.32 60.0152 132.153 61.0909C129.987 62.1515 127.441 62.6818 124.517 62.6818ZM156.273 62.7045C154.061 62.7045 152.068 62.3106 150.295 61.5227C148.538 60.7197 147.144 59.5379 146.114 57.9773C145.098 56.4167 144.591 54.4924 144.591 52.2045C144.591 50.2348 144.955 48.6061 145.682 47.3182C146.409 46.0303 147.402 45 148.659 44.2273C149.917 43.4545 151.333 42.8712 152.909 42.4773C154.5 42.0682 156.144 41.7727 157.841 41.5909C159.886 41.3788 161.545 41.1894 162.818 41.0227C164.091 40.8409 165.015 40.5682 165.591 40.2045C166.182 39.8258 166.477 39.2424 166.477 38.4545V38.3182C166.477 36.6061 165.97 35.2803 164.955 34.3409C163.939 33.4015 162.477 32.9318 160.568 32.9318C158.553 32.9318 156.955 33.3712 155.773 34.25C154.606 35.1288 153.818 36.1667 153.409 37.3636L145.727 36.2727C146.333 34.1515 147.333 32.3788 148.727 30.9545C150.121 29.5151 151.826 28.4394 153.841 27.7273C155.856 27 158.083 26.6364 160.523 26.6364C162.205 26.6364 163.879 26.8333 165.545 27.2273C167.212 27.6212 168.735 28.2727 170.114 29.1818C171.492 30.0758 172.598 31.2955 173.432 32.8409C174.28 34.3864 174.705 36.3182 174.705 38.6364V62H166.795V57.2045H166.523C166.023 58.1742 165.318 59.0833 164.409 59.9318C163.515 60.7652 162.386 61.4394 161.023 61.9545C159.674 62.4545 158.091 62.7045 156.273 62.7045ZM158.409 56.6591C160.061 56.6591 161.492 56.3333 162.705 55.6818C163.917 55.0152 164.848 54.1364 165.5 53.0455C166.167 51.9545 166.5 50.7652 166.5 49.4773V45.3636C166.242 45.5758 165.803 45.7727 165.182 45.9545C164.576 46.1364 163.894 46.2955 163.136 46.4318C162.379 46.5682 161.629 46.6894 160.886 46.7955C160.144 46.9015 159.5 46.9924 158.955 47.0682C157.727 47.2348 156.629 47.5076 155.659 47.8864C154.689 48.2652 153.924 48.7955 153.364 49.4773C152.803 50.1439 152.523 51.0076 152.523 52.0682C152.523 53.5833 153.076 54.7273 154.182 55.5C155.288 56.2727 156.697 56.6591 158.409 56.6591ZM191.205 15.4545V62H182.977V15.4545H191.205ZM214.892 62.6818C211.407 62.6818 208.415 61.9167 205.915 60.3864C203.43 58.8561 201.513 56.7424 200.165 54.0455C198.831 51.3333 198.165 48.2121 198.165 44.6818C198.165 41.1364 198.847 38.0076 200.21 35.2955C201.574 32.5682 203.498 30.447 205.983 28.9318C208.483 27.4015 211.438 26.6364 214.847 26.6364C217.68 26.6364 220.188 27.1591 222.369 28.2045C224.566 29.2348 226.316 30.697 227.619 32.5909C228.922 34.4697 229.665 36.6667 229.847 39.1818H221.983C221.665 37.5 220.907 36.0985 219.71 34.9773C218.528 33.8409 216.945 33.2727 214.96 33.2727C213.278 33.2727 211.801 33.7273 210.528 34.6364C209.256 35.5303 208.263 36.8182 207.551 38.5C206.854 40.1818 206.506 42.197 206.506 44.5455C206.506 46.9242 206.854 48.9697 207.551 50.6818C208.248 52.3788 209.225 53.6894 210.483 54.6136C211.756 55.5227 213.248 55.9773 214.96 55.9773C216.172 55.9773 217.256 55.75 218.21 55.2955C219.18 54.8258 219.991 54.1515 220.642 53.2727C221.294 52.3939 221.741 51.3258 221.983 50.0682H229.847C229.65 52.5379 228.922 54.7273 227.665 56.6364C226.407 58.5303 224.695 60.0152 222.528 61.0909C220.362 62.1515 217.816 62.6818 214.892 62.6818ZM258.852 47.3182V27.0909H267.08V62H259.102V55.7955H258.739C257.951 57.75 256.655 59.3485 254.852 60.5909C253.064 61.8333 250.86 62.4545 248.239 62.4545C245.951 62.4545 243.928 61.947 242.17 60.9318C240.428 59.9015 239.064 58.4091 238.08 56.4545C237.095 54.4848 236.602 52.1061 236.602 49.3182V27.0909H244.83V48.0455C244.83 50.2576 245.436 52.0152 246.648 53.3182C247.86 54.6212 249.451 55.2727 251.42 55.2727C252.633 55.2727 253.807 54.9773 254.943 54.3864C256.08 53.7955 257.011 52.9167 257.739 51.75C258.481 50.5682 258.852 49.0909 258.852 47.3182Z" fill="white"/>
<path d="M67.4091 80V68.3636H68.8182V73.5455H75.0227V68.3636H76.4318V80H75.0227V74.7955H68.8182V80H67.4091ZM80.751 80V71.2727H82.0919V80H80.751ZM81.4328 69.8182C81.1715 69.8182 80.9461 69.7292 80.7567 69.5511C80.5711 69.3731 80.4783 69.1591 80.4783 68.9091C80.4783 68.6591 80.5711 68.4451 80.7567 68.267C80.9461 68.089 81.1715 68 81.4328 68C81.6942 68 81.9177 68.089 82.1033 68.267C82.2927 68.4451 82.3874 68.6591 82.3874 68.9091C82.3874 69.1591 82.2927 69.3731 82.1033 69.5511C81.9177 69.7292 81.6942 69.8182 81.4328 69.8182ZM90.0234 71.2727V72.4091H85.5006V71.2727H90.0234ZM86.8188 69.1818H88.1597V77.5C88.1597 77.8788 88.2146 78.1629 88.3245 78.3523C88.4381 78.5379 88.5821 78.6629 88.7563 78.7273C88.9343 78.7879 89.1218 78.8182 89.3188 78.8182C89.4665 78.8182 89.5877 78.8106 89.6824 78.7955C89.7771 78.7765 89.8529 78.7614 89.9097 78.75L90.1824 79.9545C90.0915 79.9886 89.9646 80.0227 89.8018 80.0568C89.6389 80.0947 89.4324 80.1136 89.1824 80.1136C88.8037 80.1136 88.4324 80.0322 88.0688 79.8693C87.709 79.7064 87.4097 79.4583 87.1711 79.125C86.9362 78.7917 86.8188 78.3712 86.8188 77.8636V69.1818ZM99.2204 76.4318V71.2727H100.561V80H99.2204V78.5227H99.1295C98.9249 78.9659 98.6068 79.3428 98.1749 79.6534C97.7431 79.9602 97.1977 80.1136 96.5386 80.1136C95.9931 80.1136 95.5083 79.9943 95.084 79.7557C94.6598 79.5133 94.3265 79.1496 94.084 78.6648C93.8416 78.1761 93.7204 77.5606 93.7204 76.8182V71.2727H95.0613V76.7273C95.0613 77.3636 95.2393 77.8712 95.5954 78.25C95.9552 78.6288 96.4136 78.8182 96.9704 78.8182C97.3037 78.8182 97.6427 78.733 97.9874 78.5625C98.3359 78.392 98.6276 78.1307 98.8624 77.7784C99.1011 77.4261 99.2204 76.9773 99.2204 76.4318ZM106.038 74.75V80H104.697V71.2727H105.993V72.6364H106.106C106.311 72.1932 106.622 71.8371 107.038 71.5682C107.455 71.2955 107.993 71.1591 108.652 71.1591C109.243 71.1591 109.76 71.2803 110.203 71.5227C110.646 71.7614 110.991 72.125 111.237 72.6136C111.483 73.0985 111.606 73.7121 111.606 74.4545V80H110.265V74.5455C110.265 73.8598 110.087 73.3258 109.731 72.9432C109.375 72.5568 108.887 72.3636 108.265 72.3636C107.837 72.3636 107.455 72.4564 107.118 72.642C106.784 72.8277 106.521 73.0985 106.328 73.4545C106.135 73.8106 106.038 74.2424 106.038 74.75ZM119.259 83.4545C118.612 83.4545 118.055 83.3712 117.589 83.2045C117.123 83.0417 116.735 82.8258 116.424 82.5568C116.117 82.2917 115.873 82.0076 115.691 81.7045L116.759 80.9545C116.881 81.1136 117.034 81.2955 117.22 81.5C117.405 81.7083 117.659 81.8883 117.981 82.0398C118.307 82.1951 118.733 82.2727 119.259 82.2727C119.964 82.2727 120.545 82.1023 121.004 81.7614C121.462 81.4205 121.691 80.8864 121.691 80.1591V78.3864H121.578C121.479 78.5455 121.339 78.7424 121.157 78.9773C120.979 79.2083 120.721 79.4148 120.384 79.5966C120.051 79.7746 119.6 79.8636 119.032 79.8636C118.328 79.8636 117.695 79.697 117.134 79.3636C116.578 79.0303 116.136 78.5455 115.811 77.9091C115.489 77.2727 115.328 76.5 115.328 75.5909C115.328 74.697 115.485 73.9186 115.799 73.2557C116.114 72.589 116.551 72.0739 117.112 71.7102C117.672 71.3428 118.32 71.1591 119.055 71.1591C119.623 71.1591 120.074 71.2538 120.407 71.4432C120.744 71.6288 121.002 71.8409 121.18 72.0795C121.362 72.3144 121.502 72.5076 121.6 72.6591H121.737V71.2727H123.032V80.25C123.032 81 122.862 81.6098 122.521 82.0795C122.184 82.553 121.729 82.8996 121.157 83.1193C120.589 83.3428 119.956 83.4545 119.259 83.4545ZM119.214 78.6591C119.752 78.6591 120.206 78.536 120.578 78.2898C120.949 78.0436 121.231 77.6894 121.424 77.2273C121.617 76.7652 121.714 76.2121 121.714 75.5682C121.714 74.9394 121.619 74.3845 121.43 73.9034C121.24 73.4223 120.96 73.0455 120.589 72.7727C120.218 72.5 119.759 72.3636 119.214 72.3636C118.646 72.3636 118.172 72.5076 117.793 72.7955C117.418 73.0833 117.136 73.4697 116.947 73.9545C116.761 74.4394 116.668 74.9773 116.668 75.5682C116.668 76.1742 116.763 76.7102 116.953 77.1761C117.146 77.6383 117.43 78.0019 117.805 78.267C118.184 78.5284 118.653 78.6591 119.214 78.6591ZM133.528 80V68.3636H137.46C138.369 68.3636 139.116 68.5189 139.699 68.8295C140.282 69.1364 140.714 69.5587 140.994 70.0966C141.275 70.6345 141.415 71.2462 141.415 71.9318C141.415 72.6174 141.275 73.2254 140.994 73.7557C140.714 74.286 140.284 74.7027 139.705 75.0057C139.125 75.3049 138.385 75.4545 137.483 75.4545H134.301V74.1818H137.438C138.059 74.1818 138.559 74.0909 138.938 73.9091C139.32 73.7273 139.597 73.4697 139.767 73.1364C139.941 72.7992 140.028 72.3977 140.028 71.9318C140.028 71.4659 139.941 71.0587 139.767 70.7102C139.593 70.3617 139.314 70.0928 138.932 69.9034C138.549 69.7102 138.044 69.6136 137.415 69.6136H134.938V80H133.528ZM139.006 74.7727L141.869 80H140.233L137.415 74.7727H139.006ZM150.761 76.4318V71.2727H152.102V80H150.761V78.5227H150.67C150.466 78.9659 150.147 79.3428 149.716 79.6534C149.284 79.9602 148.738 80.1136 148.079 80.1136C147.534 80.1136 147.049 79.9943 146.625 79.7557C146.2 79.5133 145.867 79.1496 145.625 78.6648C145.382 78.1761 145.261 77.5606 145.261 76.8182V71.2727H146.602V76.7273C146.602 77.3636 146.78 77.8712 147.136 78.25C147.496 78.6288 147.954 78.8182 148.511 78.8182C148.844 78.8182 149.183 78.733 149.528 78.5625C149.877 78.392 150.168 78.1307 150.403 77.7784C150.642 77.4261 150.761 76.9773 150.761 76.4318ZM156.238 80V71.2727H157.533V72.6364H157.647C157.829 72.1705 158.122 71.8087 158.528 71.5511C158.933 71.2898 159.42 71.1591 159.988 71.1591C160.564 71.1591 161.043 71.2898 161.425 71.5511C161.812 71.8087 162.113 72.1705 162.329 72.6364H162.42C162.643 72.1856 162.978 71.8277 163.425 71.5625C163.872 71.2936 164.408 71.1591 165.033 71.1591C165.814 71.1591 166.452 71.4034 166.948 71.892C167.444 72.3769 167.692 73.1326 167.692 74.1591V80H166.352V74.1591C166.352 73.5152 166.175 73.0549 165.823 72.7784C165.471 72.5019 165.056 72.3636 164.579 72.3636C163.965 72.3636 163.49 72.5492 163.153 72.9205C162.816 73.2879 162.647 73.7538 162.647 74.3182V80H161.283V74.0227C161.283 73.5265 161.122 73.1269 160.8 72.8239C160.478 72.517 160.064 72.3636 159.556 72.3636C159.208 72.3636 158.882 72.4564 158.579 72.642C158.28 72.8277 158.037 73.0852 157.852 73.4148C157.67 73.7405 157.579 74.1174 157.579 74.5455V80H156.238ZM177.324 76.4318V71.2727H178.665V80H177.324V78.5227H177.233C177.029 78.9659 176.711 79.3428 176.279 79.6534C175.847 79.9602 175.301 80.1136 174.642 80.1136C174.097 80.1136 173.612 79.9943 173.188 79.7557C172.764 79.5133 172.43 79.1496 172.188 78.6648C171.945 78.1761 171.824 77.5606 171.824 76.8182V71.2727H173.165V76.7273C173.165 77.3636 173.343 77.8712 173.699 78.25C174.059 78.6288 174.517 78.8182 175.074 78.8182C175.407 78.8182 175.746 78.733 176.091 78.5625C176.44 78.392 176.731 78.1307 176.966 77.7784C177.205 77.4261 177.324 76.9773 177.324 76.4318ZM188.983 73.2273L187.778 73.5682C187.703 73.3674 187.591 73.1723 187.443 72.983C187.299 72.7898 187.102 72.6307 186.852 72.5057C186.602 72.3807 186.282 72.3182 185.892 72.3182C185.358 72.3182 184.913 72.4413 184.557 72.6875C184.204 72.9299 184.028 73.2386 184.028 73.6136C184.028 73.947 184.15 74.2102 184.392 74.4034C184.634 74.5966 185.013 74.7576 185.528 74.8864L186.824 75.2045C187.604 75.3939 188.185 75.6837 188.568 76.0739C188.951 76.4602 189.142 76.9583 189.142 77.5682C189.142 78.0682 188.998 78.5152 188.71 78.9091C188.426 79.303 188.028 79.6136 187.517 79.8409C187.006 80.0682 186.411 80.1818 185.733 80.1818C184.843 80.1818 184.106 79.9886 183.523 79.6023C182.939 79.2159 182.57 78.6515 182.415 77.9091L183.687 77.5909C183.809 78.0606 184.038 78.4129 184.375 78.6477C184.716 78.8826 185.161 79 185.71 79C186.335 79 186.831 78.8674 187.199 78.6023C187.57 78.3333 187.756 78.0114 187.756 77.6364C187.756 77.3333 187.65 77.0795 187.437 76.875C187.225 76.6667 186.9 76.5114 186.46 76.4091L185.006 76.0682C184.206 75.8788 183.619 75.5852 183.244 75.1875C182.873 74.786 182.687 74.2841 182.687 73.6818C182.687 73.1894 182.826 72.7538 183.102 72.375C183.382 71.9962 183.763 71.6989 184.244 71.483C184.729 71.267 185.278 71.1591 185.892 71.1591C186.756 71.1591 187.434 71.3485 187.926 71.7273C188.422 72.1061 188.775 72.6061 188.983 73.2273ZM199.202 80V68.3636H206.225V69.6136H200.611V73.5455H205.861V74.7955H200.611V78.75H206.316V80H199.202ZM211.513 76.8182L211.49 75.1591H211.763L215.581 71.2727H217.24L213.172 75.3864H213.058L211.513 76.8182ZM210.263 80V68.3636H211.604V80H210.263ZM215.808 80L212.399 75.6818L213.354 74.75L217.513 80H215.808ZM223.832 80.1818C223.044 80.1818 222.353 79.9943 221.758 79.6193C221.167 79.2443 220.705 78.7197 220.372 78.0455C220.042 77.3712 219.878 76.5833 219.878 75.6818C219.878 74.7727 220.042 73.9792 220.372 73.3011C220.705 72.6231 221.167 72.0966 221.758 71.7216C222.353 71.3466 223.044 71.1591 223.832 71.1591C224.62 71.1591 225.309 71.3466 225.9 71.7216C226.495 72.0966 226.957 72.6231 227.287 73.3011C227.62 73.9792 227.787 74.7727 227.787 75.6818C227.787 76.5833 227.62 77.3712 227.287 78.0455C226.957 78.7197 226.495 79.2443 225.9 79.6193C225.309 79.9943 224.62 80.1818 223.832 80.1818ZM223.832 78.9773C224.431 78.9773 224.923 78.8239 225.309 78.517C225.696 78.2102 225.982 77.8068 226.167 77.3068C226.353 76.8068 226.446 76.2652 226.446 75.6818C226.446 75.0985 226.353 74.5549 226.167 74.0511C225.982 73.5473 225.696 73.1402 225.309 72.8295C224.923 72.5189 224.431 72.3636 223.832 72.3636C223.234 72.3636 222.741 72.5189 222.355 72.8295C221.968 73.1402 221.682 73.5473 221.497 74.0511C221.311 74.5549 221.218 75.0985 221.218 75.6818C221.218 76.2652 221.311 76.8068 221.497 77.3068C221.682 77.8068 221.968 78.2102 222.355 78.517C222.741 78.8239 223.234 78.9773 223.832 78.9773ZM232.854 74.75V80H231.514V71.2727H232.809V72.6364H232.923C233.127 72.1932 233.438 71.8371 233.854 71.5682C234.271 71.2955 234.809 71.1591 235.468 71.1591C236.059 71.1591 236.576 71.2803 237.019 71.5227C237.462 71.7614 237.807 72.125 238.053 72.6136C238.3 73.0985 238.423 73.7121 238.423 74.4545V80H237.082V74.5455C237.082 73.8598 236.904 73.3258 236.548 72.9432C236.192 72.5568 235.703 72.3636 235.082 72.3636C234.654 72.3636 234.271 72.4564 233.934 72.642C233.601 72.8277 233.337 73.0985 233.144 73.4545C232.951 73.8106 232.854 74.2424 232.854 74.75ZM246.098 80.1818C245.31 80.1818 244.619 79.9943 244.024 79.6193C243.434 79.2443 242.971 78.7197 242.638 78.0455C242.309 77.3712 242.144 76.5833 242.144 75.6818C242.144 74.7727 242.309 73.9792 242.638 73.3011C242.971 72.6231 243.434 72.0966 244.024 71.7216C244.619 71.3466 245.31 71.1591 246.098 71.1591C246.886 71.1591 247.576 71.3466 248.167 71.7216C248.761 72.0966 249.223 72.6231 249.553 73.3011C249.886 73.9792 250.053 74.7727 250.053 75.6818C250.053 76.5833 249.886 77.3712 249.553 78.0455C249.223 78.7197 248.761 79.2443 248.167 79.6193C247.576 79.9943 246.886 80.1818 246.098 80.1818ZM246.098 78.9773C246.697 78.9773 247.189 78.8239 247.576 78.517C247.962 78.2102 248.248 77.8068 248.434 77.3068C248.619 76.8068 248.712 76.2652 248.712 75.6818C248.712 75.0985 248.619 74.5549 248.434 74.0511C248.248 73.5473 247.962 73.1402 247.576 72.8295C247.189 72.5189 246.697 72.3636 246.098 72.3636C245.5 72.3636 245.007 72.5189 244.621 72.8295C244.235 73.1402 243.949 73.5473 243.763 74.0511C243.578 74.5549 243.485 75.0985 243.485 75.6818C243.485 76.2652 243.578 76.8068 243.763 77.3068C243.949 77.8068 244.235 78.2102 244.621 78.517C245.007 78.8239 245.5 78.9773 246.098 78.9773ZM253.78 80V71.2727H255.075V72.6364H255.189C255.371 72.1705 255.664 71.8087 256.07 71.5511C256.475 71.2898 256.962 71.1591 257.53 71.1591C258.106 71.1591 258.585 71.2898 258.967 71.5511C259.354 71.8087 259.655 72.1705 259.871 72.6364H259.962C260.185 72.1856 260.52 71.8277 260.967 71.5625C261.414 71.2936 261.95 71.1591 262.575 71.1591C263.356 71.1591 263.994 71.4034 264.49 71.892C264.986 72.3769 265.234 73.1326 265.234 74.1591V80H263.893V74.1591C263.893 73.5152 263.717 73.0549 263.365 72.7784C263.013 72.5019 262.598 72.3636 262.121 72.3636C261.507 72.3636 261.032 72.5492 260.695 72.9205C260.357 73.2879 260.189 73.7538 260.189 74.3182V80H258.825V74.0227C258.825 73.5265 258.664 73.1269 258.342 72.8239C258.02 72.517 257.606 72.3636 257.098 72.3636C256.749 72.3636 256.424 72.4564 256.121 72.642C255.821 72.8277 255.579 73.0852 255.393 73.4148C255.212 73.7405 255.121 74.1174 255.121 74.5455V80H253.78ZM269.366 80V71.2727H270.707V80H269.366ZM270.048 69.8182C269.786 69.8182 269.561 69.7292 269.372 69.5511C269.186 69.3731 269.093 69.1591 269.093 68.9091C269.093 68.6591 269.186 68.4451 269.372 68.267C269.561 68.089 269.786 68 270.048 68C270.309 68 270.533 68.089 270.718 68.267C270.908 68.4451 271.002 68.6591 271.002 68.9091C271.002 69.1591 270.908 69.3731 270.718 69.5511C270.533 69.7292 270.309 69.8182 270.048 69.8182Z" fill="white"/>
</svg>
